<svg version="1.1" id="Layer_1" xmlns="http://www.w3.org/2000/svg" xmlns:xlink="http://www.w3.org/1999/xlink" x="0px" y="0px"
	 width="100%" viewBox="0 0 800 800" enable-background="new 0 0 800 800" xml:space="preserve">
<path fill="#FFFFFF" opacity="1.000000" stroke="none" 
	d="
M372.000000,801.000000 
	C248.405380,801.000000 124.810768,801.000000 1.000000,801.000000 
	C1.000000,677.644104 1.000000,554.288086 1.399649,430.636536 
	C2.542570,439.173859 2.615896,448.126984 4.175880,456.813110 
	C6.972396,472.384399 10.431187,487.849243 14.030312,503.261169 
	C20.700956,531.825684 31.989384,558.658630 45.252972,584.721008 
	C46.541607,587.253113 47.580032,587.581665 49.974899,585.689941 
	C55.179070,581.579163 60.569443,577.669067 66.134544,574.064148 
	C69.247078,572.048035 69.134941,570.285400 67.747566,567.178589 
	C61.646683,553.516602 55.382160,539.895386 50.076191,525.917969 
	C41.168304,502.452118 34.860592,478.232483 32.031174,453.237793 
	C30.392151,438.758942 28.316635,424.219574 28.256588,409.699890 
	C28.182467,391.775970 29.709347,373.821564 31.111427,355.924744 
	C31.884609,346.055542 32.977924,336.063171 35.410812,326.503967 
	C40.050362,308.274384 45.144695,290.110046 51.160027,272.293304 
	C59.649536,247.148254 71.873459,223.680542 86.192795,201.352905 
	C102.923203,175.265823 122.087387,151.148254 145.194702,130.361298 
	C155.318375,121.254196 165.229095,111.803520 176.090454,103.645828 
	C197.689880,87.423027 220.647858,73.301384 245.367340,62.165997 
	C269.817963,51.151711 294.998505,42.618263 321.229614,36.730907 
	C341.999115,32.069363 362.962860,29.464991 384.070221,28.210537 
	C397.424255,27.416878 410.925110,28.265173 424.313171,29.115953 
	C436.524536,29.891953 448.813171,30.916836 460.814850,33.175663 
	C477.758759,36.364666 494.688812,40.039234 511.230530,44.859283 
	C537.909485,52.633221 563.161682,63.983776 587.226868,77.982216 
	C609.342102,90.846375 630.119873,105.599571 649.013733,122.767838 
	C660.694946,133.382202 671.371216,145.137802 682.130249,156.723175 
	C696.106262,171.772659 707.746948,188.579147 718.617859,205.997437 
	C732.770081,228.673386 744.151001,252.619400 752.979370,277.791260 
	C759.660522,296.841034 765.402710,316.175934 768.031006,336.268555 
	C770.167053,352.598328 773.093872,368.924927 773.706116,385.326202 
	C774.351562,402.619507 773.344910,420.060272 771.801697,437.324127 
	C770.401306,452.990204 768.322998,468.741821 764.751831,484.037384 
	C757.224121,516.279236 745.947021,547.257812 729.978333,576.415833 
	C717.880127,598.506592 704.154236,619.431824 687.896912,638.741943 
	C674.835876,654.255615 660.872070,668.766052 645.562256,682.084900 
	C630.066406,695.565552 613.604797,707.581970 596.197449,718.476013 
	C573.394348,732.747070 549.272949,744.097046 523.960327,753.020203 
	C501.050476,761.096252 477.681183,767.424866 453.463715,769.944580 
	C437.154449,771.641479 420.785400,773.570801 404.425507,773.744873 
	C388.342712,773.916016 372.201324,772.387939 356.154877,770.872559 
	C344.858826,769.805847 333.528259,768.169922 322.475342,765.641602 
	C291.763031,758.616394 262.068176,748.522888 234.035339,733.948242 
	C230.730759,732.230103 229.459854,733.609680 227.905197,736.244934 
	C225.771088,739.862610 223.250168,743.258667 220.796860,746.679321 
	C218.770401,749.504761 216.601486,752.228088 214.126785,755.481689 
	C226.917740,761.380920 238.707352,767.437500 250.955902,772.349609 
	C285.625427,786.253296 321.448914,795.745667 358.784393,799.039673 
	C363.212769,799.430359 367.595886,800.334106 372.000000,801.000000 
M526.645142,102.929131 
	C515.484924,98.940994 504.403870,94.711708 493.147827,91.015381 
	C470.379883,83.538719 446.818024,79.643227 423.023071,78.248466 
	C406.666992,77.289742 390.140900,78.134972 373.753571,79.168625 
	C361.719788,79.927673 349.725464,81.942459 337.822327,84.020836 
	C305.966766,89.583099 276.107880,100.854416 247.605423,116.025208 
	C224.231110,128.466492 202.846252,143.758408 183.283646,161.434586 
	C166.367035,176.719894 151.281479,193.799805 137.999786,212.436157 
	C122.790222,233.777664 109.636841,256.293518 100.747253,280.942505 
	C94.367935,298.631012 88.468315,316.645721 84.401222,334.969116 
	C80.799973,351.193848 79.192619,367.998322 78.247620,384.634521 
	C77.403244,399.499359 78.371208,414.498505 79.107475,429.410309 
	C79.567322,438.723999 80.175453,448.199646 82.310509,457.225708 
	C86.642967,475.541412 91.165733,493.909180 97.300743,511.671509 
	C102.427322,526.514160 109.912117,540.548279 116.534676,554.856201 
	C117.024414,555.914246 119.164680,557.096863 120.234344,556.858887 
	C129.661148,554.760864 138.867432,556.489258 148.109970,557.990540 
	C171.565811,561.800537 191.638275,572.581665 208.868973,588.528870 
	C221.635757,600.344666 231.192932,614.626587 237.454422,630.956055 
	C243.724213,647.307190 247.787567,663.999329 245.108215,681.733887 
	C244.945450,682.811279 245.800201,684.600403 246.730438,685.185303 
	C250.170883,687.348694 253.693344,689.517944 257.451630,691.016052 
	C274.496765,697.810486 291.449219,704.908447 308.781738,710.893188 
	C331.424408,718.711548 355.078583,722.634644 378.875488,723.711060 
	C401.470642,724.733032 424.292145,725.506958 446.729248,720.961609 
	C463.454010,717.573364 480.282135,714.437134 496.710632,709.906555 
	C520.182861,703.433533 542.164368,693.186646 563.284119,681.012329 
	C583.502991,669.357544 602.354919,655.770996 619.287720,639.862671 
	C631.665222,628.234009 642.815552,615.241333 653.978333,602.392212 
	C668.065247,586.177063 679.108154,567.827026 688.960571,548.822021 
	C698.414673,530.585510 705.922668,511.519287 711.661804,491.763336 
	C718.199036,469.260345 722.762695,446.290955 723.731445,422.963684 
	C724.670227,400.358368 725.484375,377.544434 720.956299,355.108673 
	C717.580261,338.380920 714.404175,321.561951 709.883423,305.129028 
	C704.304077,284.848267 695.670715,265.703796 685.699707,247.119888 
	C673.175781,223.777695 658.032043,202.269302 640.097717,182.951630 
	C628.547913,170.510956 615.602478,159.270432 602.614075,148.282089 
	C580.039917,129.184143 554.612854,114.596176 526.645142,102.929131 
M139.104218,758.993958 
	C140.192795,758.671387 141.261230,758.222046 142.372971,758.045349 
	C159.829010,755.271912 174.919922,747.466492 187.212387,735.065308 
	C200.471161,721.689148 208.845551,705.621521 211.154205,686.491089 
	C212.553497,674.896118 212.034805,663.686157 209.145844,652.401428 
	C204.994461,636.185425 196.335236,622.910217 184.172882,611.618591 
	C170.252670,598.694885 153.588821,591.892761 134.999847,590.142029 
	C121.350060,588.856384 107.836273,590.634094 95.029861,596.043823 
	C75.136681,604.446960 60.285923,618.265259 50.776470,637.681641 
	C42.636059,654.302795 40.801804,671.963684 44.111546,689.887634 
	C50.096039,722.296753 69.254608,743.763855 100.131699,755.114624 
	C112.555649,759.681824 125.365601,758.970947 139.104218,758.993958 
z"/>
<path fill="#002C44" opacity="1.000000" stroke="none" 
	d="
M372.468658,801.000000 
	C367.595886,800.334106 363.212769,799.430359 358.784393,799.039673 
	C321.448914,795.745667 285.625427,786.253296 250.955902,772.349609 
	C238.707352,767.437500 226.917740,761.380920 214.126785,755.481689 
	C216.601486,752.228088 218.770401,749.504761 220.796860,746.679321 
	C223.250168,743.258667 225.771088,739.862610 227.905197,736.244934 
	C229.459854,733.609680 230.730759,732.230103 234.035339,733.948242 
	C262.068176,748.522888 291.763031,758.616394 322.475342,765.641602 
	C333.528259,768.169922 344.858826,769.805847 356.154877,770.872559 
	C372.201324,772.387939 388.342712,773.916016 404.425507,773.744873 
	C420.785400,773.570801 437.154449,771.641479 453.463715,769.944580 
	C477.681183,767.424866 501.050476,761.096252 523.960327,753.020203 
	C549.272949,744.097046 573.394348,732.747070 596.197449,718.476013 
	C613.604797,707.581970 630.066406,695.565552 645.562256,682.084900 
	C660.872070,668.766052 674.835876,654.255615 687.896912,638.741943 
	C704.154236,619.431824 717.880127,598.506592 729.978333,576.415833 
	C745.947021,547.257812 757.224121,516.279236 764.751831,484.037384 
	C768.322998,468.741821 770.401306,452.990204 771.801697,437.324127 
	C773.344910,420.060272 774.351562,402.619507 773.706116,385.326202 
	C773.093872,368.924927 770.167053,352.598328 768.031006,336.268555 
	C765.402710,316.175934 759.660522,296.841034 752.979370,277.791260 
	C744.151001,252.619400 732.770081,228.673386 718.617859,205.997437 
	C707.746948,188.579147 696.106262,171.772659 682.130249,156.723175 
	C671.371216,145.137802 660.694946,133.382202 649.013733,122.767838 
	C630.119873,105.599571 609.342102,90.846375 587.226868,77.982216 
	C563.161682,63.983776 537.909485,52.633221 511.230530,44.859283 
	C494.688812,40.039234 477.758759,36.364666 460.814850,33.175663 
	C448.813171,30.916836 436.524536,29.891953 424.313171,29.115953 
	C410.925110,28.265173 397.424255,27.416878 384.070221,28.210537 
	C362.962860,29.464991 341.999115,32.069363 321.229614,36.730907 
	C294.998505,42.618263 269.817963,51.151711 245.367340,62.165997 
	C220.647858,73.301384 197.689880,87.423027 176.090454,103.645828 
	C165.229095,111.803520 155.318375,121.254196 145.194702,130.361298 
	C122.087387,151.148254 102.923203,175.265823 86.192795,201.352905 
	C71.873459,223.680542 59.649536,247.148254 51.160027,272.293304 
	C45.144695,290.110046 40.050362,308.274384 35.410812,326.503967 
	C32.977924,336.063171 31.884609,346.055542 31.111427,355.924744 
	C29.709347,373.821564 28.182467,391.775970 28.256588,409.699890 
	C28.316635,424.219574 30.392151,438.758942 32.031174,453.237793 
	C34.860592,478.232483 41.168304,502.452118 50.076191,525.917969 
	C55.382160,539.895386 61.646683,553.516602 67.747566,567.178589 
	C69.134941,570.285400 69.247078,572.048035 66.134544,574.064148 
	C60.569443,577.669067 55.179070,581.579163 49.974899,585.689941 
	C47.580032,587.581665 46.541607,587.253113 45.252972,584.721008 
	C31.989384,558.658630 20.700956,531.825684 14.030312,503.261169 
	C10.431187,487.849243 6.972396,472.384399 4.175880,456.813110 
	C2.615896,448.126984 2.542570,439.173859 1.399649,430.170532 
	C1.000000,410.979095 1.000000,391.958221 1.400872,372.296387 
	C3.869198,355.329376 5.119851,338.845551 8.234037,322.721588 
	C11.342608,306.626709 15.547160,290.640350 20.643625,275.055206 
	C29.721815,247.293839 41.826328,220.816635 56.972427,195.739273 
	C72.434067,170.139465 89.999512,146.079132 110.991028,124.857872 
	C125.296776,110.395546 140.983109,97.245934 156.547012,84.095009 
	C174.400208,69.009705 194.418198,56.999443 215.006226,46.090534 
	C240.103897,32.792110 266.451691,22.466406 293.883423,14.960813 
	C314.703125,9.264338 335.772919,4.974314 357.290131,2.968985 
	C362.211853,2.510298 367.097656,1.666534 372.000000,0.999999 
	C391.020905,1.000000 410.041779,1.000000 429.703613,1.400872 
	C446.170959,3.866675 462.156189,5.127052 477.781372,8.211565 
	C495.132263,11.636744 512.494385,15.711633 529.242493,21.322170 
	C556.148865,30.335693 581.887085,42.205669 606.263611,56.962879 
	C631.848633,72.451668 655.844727,90.063477 677.166870,110.964905 
	C690.545166,124.079247 702.864014,138.338547 714.990356,152.649994 
	C731.149780,171.721252 744.242126,192.967606 755.912720,215.003738 
	C769.206116,240.104172 779.533630,266.451172 787.039124,293.883087 
	C792.735535,314.702850 797.025757,335.772766 799.031067,357.290070 
	C799.489685,362.211792 800.333435,367.097656 801.000000,372.000000 
	C801.000000,391.020905 801.000000,410.041779 800.599121,429.703613 
	C798.133362,446.170319 796.872803,462.154877 793.788513,477.779449 
	C790.363708,495.129730 786.291443,512.492126 780.679321,529.238831 
	C771.663391,556.143005 759.802002,581.883850 745.038574,606.256653 
	C729.544617,631.835632 712.006104,655.910156 691.018250,677.132385 
	C676.714661,691.595642 661.024597,704.739868 645.465149,717.895081 
	C627.615906,732.986328 607.586182,744.975464 587.012573,755.909180 
	C561.921265,769.243774 535.497131,779.408142 508.109253,787.022766 
	C487.313599,792.804626 466.225739,797.025513 444.709320,799.031067 
	C439.787811,799.489807 434.902161,800.333496 430.000000,801.000000 
	C410.979095,801.000000 391.958221,801.000000 372.468658,801.000000 
z"/>
<path fill="#FFFFFF" opacity="1.000000" stroke="none" 
	d="
M430.468658,801.000000 
	C434.902161,800.333496 439.787811,799.489807 444.709320,799.031067 
	C466.225739,797.025513 487.313599,792.804626 508.109253,787.022766 
	C535.497131,779.408142 561.921265,769.243774 587.012573,755.909180 
	C607.586182,744.975464 627.615906,732.986328 645.465149,717.895081 
	C661.024597,704.739868 676.714661,691.595642 691.018250,677.132385 
	C712.006104,655.910156 729.544617,631.835632 745.038574,606.256653 
	C759.802002,581.883850 771.663391,556.143005 780.679321,529.238831 
	C786.291443,512.492126 790.363708,495.129730 793.788513,477.779449 
	C796.872803,462.154877 798.133362,446.170319 800.599121,430.172272 
	C801.000000,553.593750 801.000000,677.187500 801.000000,801.000000 
	C677.645874,801.000000 554.291565,801.000000 430.468658,801.000000 
z"/>
<path fill="#FFFFFF" opacity="1.000000" stroke="none" 
	d="
M371.531342,0.999999 
	C367.097656,1.666534 362.211853,2.510298 357.290131,2.968985 
	C335.772919,4.974314 314.703125,9.264338 293.883423,14.960813 
	C266.451691,22.466406 240.103897,32.792110 215.006226,46.090534 
	C194.418198,56.999443 174.400208,69.009705 156.547012,84.095009 
	C140.983109,97.245934 125.296776,110.395546 110.991028,124.857872 
	C89.999512,146.079132 72.434067,170.139465 56.972427,195.739273 
	C41.826328,220.816635 29.721815,247.293839 20.643625,275.055206 
	C15.547160,290.640350 11.342608,306.626709 8.234037,322.721588 
	C5.119851,338.845551 3.869198,355.329376 1.400872,371.827759 
	C1.000000,248.406250 1.000000,124.812515 1.000000,1.000000 
	C124.354141,1.000000 247.708420,1.000000 371.531342,0.999999 
z"/>
<path fill="#FFFFFF" opacity="1.000000" stroke="none" 
	d="
M801.000000,371.531342 
	C800.333435,367.097656 799.489685,362.211792 799.031067,357.290070 
	C797.025757,335.772766 792.735535,314.702850 787.039124,293.883087 
	C779.533630,266.451172 769.206116,240.104172 755.912720,215.003738 
	C744.242126,192.967606 731.149780,171.721252 714.990356,152.649994 
	C702.864014,138.338547 690.545166,124.079247 677.166870,110.964905 
	C655.844727,90.063477 631.848633,72.451668 606.263611,56.962879 
	C581.887085,42.205669 556.148865,30.335693 529.242493,21.322170 
	C512.494385,15.711633 495.132263,11.636744 477.781372,8.211565 
	C462.156189,5.127052 446.170959,3.866675 430.172241,1.400872 
	C553.593750,1.000000 677.187439,1.000000 801.000000,1.000000 
	C801.000000,124.354141 801.000000,247.708420 801.000000,371.531342 
z"/>
<path fill="#00BEDC" opacity="1.000000" stroke="none" 
	d="
M527.027649,103.003365 
	C554.612854,114.596176 580.039917,129.184143 602.614075,148.282089 
	C615.602478,159.270432 628.547913,170.510956 640.097717,182.951630 
	C658.032043,202.269302 673.175781,223.777695 685.699707,247.119888 
	C695.670715,265.703796 704.304077,284.848267 709.883423,305.129028 
	C714.404175,321.561951 717.580261,338.380920 720.956299,355.108673 
	C725.484375,377.544434 724.670227,400.358368 723.731445,422.963684 
	C722.762695,446.290955 718.199036,469.260345 711.661804,491.763336 
	C705.922668,511.519287 698.414673,530.585510 688.960571,548.822021 
	C679.108154,567.827026 668.065247,586.177063 653.978333,602.392212 
	C642.815552,615.241333 631.665222,628.234009 619.287720,639.862671 
	C602.354919,655.770996 583.502991,669.357544 563.284119,681.012329 
	C542.164368,693.186646 520.182861,703.433533 496.710632,709.906555 
	C480.282135,714.437134 463.454010,717.573364 446.729248,720.961609 
	C424.292145,725.506958 401.470642,724.733032 378.875488,723.711060 
	C355.078583,722.634644 331.424408,718.711548 308.781738,710.893188 
	C291.449219,704.908447 274.496765,697.810486 257.451630,691.016052 
	C253.693344,689.517944 250.170883,687.348694 246.730438,685.185303 
	C245.800201,684.600403 244.945450,682.811279 245.108215,681.733887 
	C247.787567,663.999329 243.724213,647.307190 237.454422,630.956055 
	C231.192932,614.626587 221.635757,600.344666 208.868973,588.528870 
	C191.638275,572.581665 171.565811,561.800537 148.109970,557.990540 
	C138.867432,556.489258 129.661148,554.760864 120.234344,556.858887 
	C119.164680,557.096863 117.024414,555.914246 116.534676,554.856201 
	C109.912117,540.548279 102.427322,526.514160 97.300743,511.671509 
	C91.165733,493.909180 86.642967,475.541412 82.310509,457.225708 
	C80.175453,448.199646 79.567322,438.723999 79.107475,429.410309 
	C78.371208,414.498505 77.403244,399.499359 78.247620,384.634521 
	C79.192619,367.998322 80.799973,351.193848 84.401222,334.969116 
	C88.468315,316.645721 94.367935,298.631012 100.747253,280.942505 
	C109.636841,256.293518 122.790222,233.777664 137.999786,212.436157 
	C151.281479,193.799805 166.367035,176.719894 183.283646,161.434586 
	C202.846252,143.758408 224.231110,128.466492 247.605423,116.025208 
	C276.107880,100.854416 305.966766,89.583099 337.822327,84.020836 
	C349.725464,81.942459 361.719788,79.927673 373.753571,79.168625 
	C390.140900,78.134972 406.666992,77.289742 423.023071,78.248466 
	C446.818024,79.643227 470.379883,83.538719 493.147827,91.015381 
	C504.403870,94.711708 515.484924,98.940994 527.027649,103.003365 
M439.161346,323.315826 
	C426.597839,293.943359 414.034302,264.570892 401.006256,234.112396 
	C360.326141,329.035889 320.190613,422.688629 279.750580,517.051880 
	C360.921478,482.987091 441.190857,482.990967 522.242310,517.043030 
	C494.447021,452.175110 466.983978,388.082489 439.161346,323.315826 
z"/>
<path fill="#FF6900" opacity="1.000000" stroke="none" 
	d="
M138.638184,758.996704 
	C125.365601,758.970947 112.555649,759.681824 100.131699,755.114624 
	C69.254608,743.763855 50.096039,722.296753 44.111546,689.887634 
	C40.801804,671.963684 42.636059,654.302795 50.776470,637.681641 
	C60.285923,618.265259 75.136681,604.446960 95.029861,596.043823 
	C107.836273,590.634094 121.350060,588.856384 134.999847,590.142029 
	C153.588821,591.892761 170.252670,598.694885 184.172882,611.618591 
	C196.335236,622.910217 204.994461,636.185425 209.145844,652.401428 
	C212.034805,663.686157 212.553497,674.896118 211.154205,686.491089 
	C208.845551,705.621521 200.471161,721.689148 187.212387,735.065308 
	C174.919922,747.466492 159.829010,755.271912 142.372971,758.045349 
	C141.261230,758.222046 140.192795,758.671387 138.638184,758.996704 
z"/>
<path fill="#002D45" opacity="1.000000" stroke="none" 
	d="
M439.341125,323.652832 
	C466.983978,388.082489 494.447021,452.175110 522.242310,517.043030 
	C441.190857,482.990967 360.921478,482.987091 279.750580,517.051880 
	C320.190613,422.688629 360.326141,329.035889 401.006256,234.112396 
	C414.034302,264.570892 426.597839,293.943359 439.341125,323.652832 
M401.000397,366.500000 
	C401.000397,344.222839 401.000397,321.945679 401.000397,299.668518 
	C400.699188,299.656586 400.397949,299.644684 400.096741,299.632751 
	C375.134125,357.973969 350.171509,416.315216 325.484436,474.012421 
	C350.695190,470.981567 375.675446,467.978424 401.000397,464.933838 
	C401.000397,433.096710 401.000397,400.298370 401.000397,366.500000 
z"/>
<path fill="#FEFEFE" opacity="1.000000" stroke="none" 
	d="
M401.000397,367.000000 
	C401.000397,400.298370 401.000397,433.096710 401.000397,464.933838 
	C375.675446,467.978424 350.695190,470.981567 325.484436,474.012421 
	C350.171509,416.315216 375.134125,357.973969 400.096741,299.632751 
	C400.397949,299.644684 400.699188,299.656586 401.000397,299.668518 
	C401.000397,321.945679 401.000397,344.222839 401.000397,367.000000 
z"/>
</svg>