/* XPM */
static char *default_pi[] = {
/* columns rows colors chars-per-pixel */
"32 32 249 2 ",
"   c white",
".  c #FAFBFB",
"X  c #D3D9DD",
"o  c #8C9FAA",
"O  c #4D6A7B",
"+  c #294C61",
"@  c #1D4157",
"#  c #1A4056",
"$  c #1D4258",
"%  c #D2D9DD",
"&  c #FEFEFE",
"*  c #FBFBFC",
"=  c #C5CED4",
"-  c #647D8C",
";  c #335468",
":  c #4B6879",
">  c #8094A0",
",  c #ADBAC2",
"<  c #C8D0D5",
"1  c #D4DADE",
"2  c #8094A1",
"3  c #C5CED3",
"4  c #E4E8EA",
"5  c #728896",
"6  c #2E5064",
"7  c #6E8693",
"8  c #CAD1D6",
"9  c #F8F8F8",
"0  c #FEFFFF",
"q  c #F6FEFE",
"w  c #EDFCFD",
"e  c #CAD2D7",
"r  c #6F8694",
"t  c #728895",
"y  c #C7D0D5",
"u  c #3F5E71",
"i  c #516D7D",
"p  c #FDFDFD",
"a  c #F9FDFE",
"s  c #CDF2F7",
"d  c #8DE1EE",
"f  c #59D4E7",
"g  c #3ACCE3",
"h  c #2DC9E1",
"j  c #CBD2D7",
"k  c #516D7E",
"l  c #3F5E70",
"z  c #BBC6CC",
"x  c #305165",
"c  c #7D929E",
"v  c #F1F3F4",
"b  c #FCFEFF",
"n  c #C0EEF5",
"m  c #58D3E7",
"M  c #14C2DE",
"N  c #00BDDB",
"B  c #00BCDB",
"V  c #BBC5CC",
"C  c #C7CFD4",
"Z  c #305265",
"A  c #8DA0AA",
"S  c #FBFBFB",
"D  c #EDFAFC",
"F  c #7CDCEB",
"G  c #13C2DE",
"H  c #01BEDC",
"J  c #8EA0AA",
"K  c #E3E7EA",
"L  c #7D919E",
"P  c #E6F8FA",
"I  c #58D3E6",
"U  c #02BDDB",
"Y  c #00BEDC",
"T  c #57D3E6",
"R  c #E5F8FA",
"E  c gray99",
"W  c #EEFAFC",
"Q  c #718895",
"!  c #2F5064",
"~  c #C9D1D6",
"^  c #01BDDB",
"/  c #CAD2D6",
"(  c #C4CDD3",
")  c #FBFCFC",
"_  c #657D8C",
"`  c #6F8593",
"'  c #FFFEFE",
"]  c #00BFDD",
"[  c #02ACCA",
"{  c #708694",
"}  c #647C8B",
"|  c #345468",
" . c #FBFFFF",
".. c #01BFDD",
"X. c #02738E",
"o. c #8D9FAA",
"O. c #F8F7F8",
"+. c #15C2DE",
"@. c #01AFCC",
"#. c #04445E",
"$. c #03445E",
"%. c #00BEDD",
"&. c #CCF1F7",
"*. c #F9F8F8",
"=. c #8C9EA9",
"-. c #4E6A7B",
";. c #01C0DE",
":. c #0084A0",
">. c #325468",
",. c #183F56",
"<. c #2A4C61",
"1. c #ACB9C1",
"2. c #01B7D5",
"3. c #095872",
"4. c #8A9AA5",
"5. c #22455B",
"6. c #00516B",
"7. c #1D4158",
"8. c #F5FEFF",
"9. c #0093B0",
"0. c #385E72",
"q. c #CCD3D8",
"w. c #20455B",
"e. c #003049",
"r. c #0296B2",
"t. c #01BCDA",
"y. c #01627D",
"u. c #8D9DA7",
"i. c #E2E7E9",
"p. c #1F455B",
"a. c #002841",
"s. c #01637D",
"d. c #2CC8E1",
"f. c #EDFBFD",
"g. c #00A2C0",
"h. c #215369",
"j. c #DBE0E3",
"k. c #E2E6E9",
"l. c #002942",
"z. c #013A53",
"x. c #01A4C1",
"c. c #F6FEFF",
"v. c #00728D",
"b. c #6F8492",
"n. c #E0E5E8",
"m. c #002A43",
"M. c #01748F",
"N. c #0B4C65",
"B. c #93A0AA",
"V. c #B2BCC3",
"C. c #8A9BA6",
"Z. c #12384F",
"A. c #01445E",
"S. c #01AFCD",
"D. c #4F6B7C",
"F. c #7F939F",
"G. c #8EE1EE",
"H. c #0284A0",
"J. c #043850",
"K. c #0F516A",
"L. c #055C76",
"P. c #01637E",
"I. c #00637E",
"U. c #015973",
"Y. c #014660",
"T. c #01354E",
"R. c #8EA0AB",
"E. c #4A6778",
"W. c #F8F7F7",
"Q. c #0295B1",
"!. c #019BB8",
"~. c #00B2D0",
"^. c #00BBD9",
"/. c #01BBD9",
"(. c #01B3D1",
"). c #019CB9",
"_. c #D3DADE",
"`. c #335467",
"'. c #C6CFD4",
"]. c #5CD4E7",
"[. c #05BFDC",
"{. c #68808E",
"}. c #8295A1",
"|. c #E2F8FC",
" X c #BBEFF9",
".X c #90E3F1",
"XX c #37CBE2",
"oX c #BFEEF5",
"OX c #708693",
"+X c #DEE3E6",
"@X c #DCE2E5",
"#X c #FEE7D7",
"$X c #FEC49D",
"%X c #FFC39A",
"&X c #FFE3D0",
"*X c #E5F7F9",
"=X c #5FD5E8",
"-X c #FDCDAC",
";X c #FD7B21",
":X c #FE6800",
">X c #FD7719",
",X c #FEC39A",
"<X c #E5F6F8",
"1X c #526D7E",
"2X c #FDEBDE",
"3X c #FD7F28",
"4X c #FE6600",
"5X c #FF6800",
"6X c #FE6700",
"7X c #FD771B",
"8X c #FFE3CF",
"9X c #8FE3F1",
"0X c #FED0B1",
"qX c #FE6A04",
"wX c #FF6900",
"eX c #BAEFF9",
"rX c #07BFDC",
"tX c #FDD2B4",
"yX c #FE6B06",
"uX c #FFC49D",
"iX c #E2F9FE",
"pX c #57D3E7",
"aX c #FDEEE4",
"sX c #FD8431",
"dX c #FD7B22",
"fX c #FDE6D6",
"gX c #C7D0D4",
"hX c #FCD5BA",
"jX c #FD8430",
"kX c #FE6B05",
"lX c #FE6A03",
"zX c #FD7F27",
"xX c #FECEAC",
"cX c #DCE1E4",
"vX c #8296A1",
"bX c #F7F7F8",
"nX c #F5FEFE",
"mX c #EDFBFE",
"MX c #FDEEE3",
"NX c #FDD1B3",
"BX c #FDD0B0",
"VX c #DFE3E6",
"CX c #325467",
"ZX c #496778",
"AX c #7F93A0",
"SX c #8095A1",
"DX c #4B687A",
"FX c #4E6B7C",
"GX c #8C9EAA",
/* pixels */
"                  . X o O + @ # # $ + O o % .                 & ",
"              * = - ; : > , < 1 1 < , 2 : ; - 3 *             & ",
"            4 5 6 7 8 9   0 q w w q 0   9 e r 6 t 4           & ",
"          y u i e p a s d f g h h g f d s a p j k l y         & ",
"        z x c v b n m M N B N N N N B N M m n b v c x V       & ",
"      C Z A S D F G B N N H H H H H H N N N G F D S J Z C     & ",
"    K u L S P I U N Y H H H H H H H H H H Y N U T R S c l K   & ",
"  E t i v W I N N H H H H H H Y Y H H H H H H N N T W v k Q E   ",
"  3 ! ~ 0 F U N H H H H H H ^ H H N H H H H H H N U F 0 / ! (   ",
") _ ` ' n M N H H H H H H ^ ] [ [ ] ^ H H H H H H N M n ' { } ) ",
"% | ~  .m N H H H H H H H Y ..X.X...Y H H H H H H H N m  .~ | % ",
"o.: O.s +.N H H H H H H H Y @.#.$.@.%.H H H H H H H N +.&.*.: =.",
"-.>   d N N H H H H H H N ;.:.>.,.:.;.N H H H H H H N N d   2 O ",
"<.1.  f B H H H H H H H Y 2.3.4.5.6.2.Y H H H H H H H B f   , + ",
"7.< 8.g N H H H H H H ^ ;.9.0.q.w.e.r.;.^ H H H H H H N g 8.< @ ",
"# 1 w h N H H H H H H Y t.y.u.i.p.a.s.t.Y H H H H H H N d.f.1 # ",
"# 1 w h N H H H H H ^ ] g.h.j.k.p.l.z.x.] ^ H H H H H N d.f.1 # ",
"@ y c.g N H H H H H Y ..v.b.  n.p.m.m.M...Y H H H H H N g 8.< @ ",
"<.1.  f B H H H H H Y @.N.B.V.C.Z.a.a.A.S.%.H H H H H B f   , + ",
"D.F.  G.N N H H H Y ..H.J.K.L.P.I.U.Y.T.H...Y H H H N N d   2 O ",
"R.E.W.s +.N N H H Y t.Q.!.~.^.H H /.(.).Q.t.Y H H H N +.&.*.: =.",
"_.`.'. .].[.^ N N H ^ ..] Y Y Y Y Y Y ] ..^ Y H H H N m  .~ | % ",
"E {.}.  |. X.XXXU N H Y H H H H H H H H Y Y H H H N M oX' OX} ) ",
"  +X@X#X$X%X&X*X=X^ N H H H H H H H H H H H H H N U F 0 / ! (   ",
"    -X;X:X:X>X,X<XXXN H H H H H H H H H H H H N N T W v 1XQ E   ",
"  2X3X4X5X5X6X7X8X9XN N H H H H H H H H H Y N U T R S c l K   & ",
"  0XqX5XwXwX5X:X%XeXrXN N H H H H H H N N N G F D S R.x C     & ",
"  tXyX5XwXwX5X:XuXiX].M N B N N N N B N M pXn b v c x V       & ",
"  aXsX4X5X5X4XdXfX  a s d f g d.d.g f d s a p j k l gX        & ",
"  0 hXjXkXlXzXxXcXvX'.bX  0 nXf.mXnX0   9 e r 6 Q 4           & ",
"    & MXNXBX2X  VX{.CXZXAX1.< 1 1 < , SXDX; - 3 *             & ",
"& &               S 1 J FX+ @ # # @ + O GX% .     & & & & & & & "
};
